<svg xmlns="http://www.w3.org/2000/svg" viewBox="0 0 34 34" fill="none">
  <path d="M7.33333 7H26C26.6188 7 27.2123 7.24583 27.6499 7.68342C28.0875 8.121 28.3333 8.71449 28.3333 9.33333V16.3333C28.3333 19.4275 27.1042 22.395 24.9162 24.5829C22.7283 26.7708 19.7609 28 16.6667 28C15.1346 28 13.6175 27.6982 12.202 27.1119C10.7866 26.5256 9.50044 25.6663 8.41709 24.5829C6.22916 22.395 5 19.4275 5 16.3333V9.33333C5 8.71449 5.24583 8.121 5.68342 7.68342C6.121 7.24583 6.71449 7 7.33333 7V7Z" stroke="black" stroke-width="1.5" stroke-linecap="round" stroke-linejoin="round"></path>
  <path d="M12 15.1667L16.6667 19.8334L21.3333 15.1667" stroke="black" stroke-width="1.5" stroke-linecap="round" stroke-linejoin="round"></path>
</svg>