<svg width="26" height="26" viewBox="0 0 26 26" fill="none" xmlns="http://www.w3.org/2000/svg">
<path d="M13 22.1L12.6 21.6512C12.35 21.4019 6.5 14.5208 6.5 10.3822C6.5 6.79206 9.4 3.9 13 3.9C16.6 3.9 19.5 6.79206 19.5 10.3822C19.5 14.5208 13.65 21.4019 13.4 21.7011L13 22.1ZM13 4.89726C9.95 4.89726 7.5 7.34055 7.5 10.3822C7.5 13.5734 11.7 18.9586 13 20.5543C14.3 18.9586 18.5 13.5734 18.5 10.3822C18.5 7.34055 16.05 4.89726 13 4.89726Z" fill="black"/>
<path d="M13 12.8753C11.6 12.8753 10.5 11.7783 10.5 10.3821C10.5 8.98596 11.6 7.88898 13 7.88898C14.4 7.88898 15.5 8.98596 15.5 10.3821C15.5 11.7783 14.4 12.8753 13 12.8753ZM13 8.88624C12.15 8.88624 11.5 9.53446 11.5 10.3821C11.5 11.2298 12.15 11.878 13 11.878C13.85 11.878 14.5 11.2298 14.5 10.3821C14.5 9.53446 13.85 8.88624 13 8.88624Z" fill="black"/>
</svg>
